PathFileType	4	(X/Y/Z)	C:\Data\4407\4407cd02.trc
DataRate	CameraRate	NumFrames	NumMarkers	Units	OrigDataRate	OrigDataStartFrame	OrigNumFrames
200.00	200.00	      12	29	mm	200.00	1	      2000
Frame#	Time	Offset			RShoulder			RUpperArm			RElbow			RForearm			RWrist			LShoulder			LUpperArm			LElbow			LForearm			LWrist			LPSIS			RPSIS			RASIS			RThigh			RKnee			RShank			RAnkle			RHeel			RLat5			RToe			LASIS			LThigh			LKnee			LShank			LAnkle			LHeel			LLat5			LToe			
		X1	Y1	Z1	X2	Y2	Z2	X3	Y3	Z3	X4	Y4	Z4	X5	Y5	Z5	X6	Y6	Z6	X7	Y7	Z7	X8	Y8	Z8	X9	Y9	Z9	X10	Y10	Z10	X11	Y11	Z11	X12	Y12	Z12	X13	Y13	Z13	X14	Y14	Z14	X15	Y15	Z15	X16	Y16	Z16	X17	Y17	Z17	X18	Y18	Z18	X19	Y19	Z19	X20	Y20	Z20	X21	Y21	Z21	X22	Y22	Z22	X23	Y23	Z23	X24	Y24	Z24	X25	Y25	Z25	X26	Y26	Z26	X27	Y27	Z27	X28	Y28	Z28	X29	Y29	Z29	

1	0.000	368.48190	-244.19481	1400.52136	466.96149	-95.89731	1511.31897	553.26685	-184.23851	1342.44592	639.59247	-145.49435	1216.75366	678.82092	-122.52277	1057.65747	747.66656	-10.37169	1014.54224	118.35399	-130.80486	1501.82874	58.91109	-209.36089	1293.21167	-29.13647	-173.48961	1207.84595	-86.76022	-139.82445	1064.95056	-173.15430	-26.88749	1006.12842	277.98117	-272.93970	1013.65503	327.05191	-274.24344	1019.49048	427.46518	-61.71734	1015.03296	364.43036	-75.45519	691.71259	420.23239	-185.89447	511.55157	374.86945	-166.90874	436.50757	364.80371	-288.97452	111.22122	318.34726	-350.03027	82.54146	404.51581	-149.72188	59.49096	296.61493	-139.97639	54.72559	177.48103	-60.73614	1000.61658	187.82565	73.58891	719.45551	129.28954	56.40931	545.12708	170.19133	76.79279	466.30511	162.09380	-72.62894	143.43683	222.32811	-125.34438	124.84505	117.55502	59.94375	63.03900	225.84573	77.32590	52.64630	
2	0.005	368.19778	-244.54124	1399.90613	466.89618	-96.23224	1510.80811	552.91516	-184.82806	1342.06812	639.62457	-146.16571	1216.26233	678.82184	-122.81791	1057.30762	747.58087	-10.51199	1014.40613	118.39520	-130.90134	1501.41565	59.15310	-209.76996	1292.71667	-29.08278	-174.08054	1207.36206	-86.76794	-140.21288	1064.59998	-173.02823	-27.01489	1006.03937	277.41623	-273.60141	1013.42719	326.90875	-274.95316	1019.05566	427.40720	-62.55001	1014.25354	364.09836	-78.14965	691.07971	420.17139	-189.50818	511.34494	374.66946	-171.59427	436.12424	364.56921	-295.24963	111.54884	318.27637	-356.17896	83.00564	404.34030	-156.30727	59.33617	296.60516	-146.51712	54.58622	177.47900	-61.16874	999.75690	188.62453	73.01013	719.28467	130.65387	55.46643	544.57312	171.07246	78.49950	466.65076	161.45596	-60.59281	139.64296	221.70992	-112.71507	119.23447	116.97923	74.60322	63.48506	225.28899	92.05122	53.30939	
3	0.010	367.99506	-244.75706	1399.32983	466.80627	-96.67978	1510.32837	552.95386	-185.46275	1341.59314	639.66699	-146.75267	1215.76575	678.81305	-123.08051	1056.94312	747.58826	-11.01062	1014.13843	118.40263	-130.98648	1500.95020	59.32787	-210.22154	1292.30945	-28.99975	-174.62552	1207.00671	-86.75222	-140.46040	1064.14746	-172.93242	-27.12431	1005.92584	277.08987	-273.97531	1013.03784	326.33414	-275.64984	1018.69623	427.59418	-63.67325	1013.39227	364.10446	-80.65311	690.26935	420.08896	-193.35371	511.13538	374.58777	-175.73863	435.92917	364.42551	-301.56631	111.94328	317.99646	-362.66937	83.42513	404.37128	-162.70468	59.33181	296.67395	-152.99724	54.60564	177.56618	-61.43327	999.02527	189.76709	72.30126	718.67798	131.76724	55.31878	544.07208	171.75929	80.05247	466.96686	161.38379	-48.16055	135.88264	221.18677	-99.87759	113.84227	116.85803	88.02003	63.95089	224.58691	106.95794	54.19492	
4	0.015	367.81683	-244.97186	1398.58679	466.72903	-96.96944	1509.65442	552.59753	-186.05869	1341.23279	639.59521	-147.42233	1215.33838	678.77960	-123.42567	1056.48315	747.56958	-11.17800	1014.02411	118.40034	-131.09735	1500.51428	59.45300	-210.65596	1291.86890	-28.90380	-175.18457	1206.47705	-86.72799	-140.81564	1063.81201	-172.82443	-27.08890	1005.92175	276.82010	-274.54645	1012.82794	326.11215	-276.25150	1018.28656	427.63422	-64.51528	1012.60571	363.86444	-83.23119	689.54858	419.99805	-197.10233	510.99652	374.38882	-180.12524	435.59695	363.99979	-306.62646	112.10981	317.80426	-368.91675	83.98248	404.23657	-169.25737	59.20834	296.81360	-159.45824	54.28703	177.63309	-61.77369	998.04999	190.74969	71.65017	718.08984	133.01447	55.12900	543.54565	172.83511	81.57107	467.33209	160.24713	-34.67080	132.81099	220.39417	-87.07999	108.77991	115.99233	103.59702	65.19936	223.99843	121.69461	55.62321	
5	0.020	367.66034	-245.34654	1397.88440	466.63223	-97.37168	1509.11365	552.64893	-186.79312	1340.74060	639.56494	-147.98856	1214.87927	678.77765	-123.77411	1056.10742	747.57074	-11.41998	1013.88501	118.56275	-131.20531	1500.02441	59.50190	-211.03700	1291.47681	-28.88283	-175.70558	1206.11853	-86.84753	-141.20807	1063.46069	-172.68178	-27.19226	1005.90796	276.23755	-275.14105	1012.48987	325.83560	-276.64240	1017.88312	427.69064	-65.32543	1011.81213	363.73615	-85.58076	688.81122	419.98199	-200.92093	510.80371	374.27765	-184.16791	435.34964	363.81583	-313.09131	112.52561	317.64572	-375.36230	84.58946	405.37091	-173.66312	59.73244	296.81174	-166.07266	54.29311	177.61581	-61.98064	997.20453	191.30849	70.82027	716.98407	134.03752	54.45208	542.86768	173.63152	82.66499	467.50797	160.22266	-22.41873	129.67065	219.93904	-74.19815	104.00938	115.46170	117.79855	66.73524	223.39938	136.13066	57.31860	
6	0.025	367.44104	-245.43327	1397.12170	466.43753	-97.83354	1508.59851	552.26318	-187.27306	1340.24536	639.50745	-148.73962	1214.43689	678.71442	-124.10132	1055.67993	747.52051	-11.78892	1013.71313	118.68004	-131.29031	1499.63196	59.64748	-211.25230	1291.01990	-28.88549	-176.33699	1205.67603	-86.91820	-141.53720	1063.07007	-172.60699	-27.26297	1005.86816	275.85663	-275.76074	1012.15985	325.17206	-277.23007	1017.27313	427.71436	-66.16887	1010.85663	363.56168	-88.03503	688.11072	419.70105	-204.49969	510.52808	374.04755	-188.29878	435.05090	364.07095	-320.10968	112.83662	317.46100	-381.66452	85.17358	404.29376	-182.51598	59.07827	296.86050	-172.31233	54.19429	177.72919	-62.27804	996.06207	192.31445	69.64842	716.13171	135.33450	53.71667	542.00232	174.36275	83.52579	467.69693	160.13730	-10.42248	126.90053	219.59030	-61.21333	99.52072	114.94640	131.94310	68.63747	223.14426	150.41057	59.29188	
7	0.030	367.22266	-245.90883	1396.44629	466.32523	-98.20197	1507.94861	552.15900	-187.75919	1339.74072	639.53571	-149.17024	1213.90930	678.80212	-124.44408	1055.23828	747.45227	-11.92826	1013.59418	118.74119	-131.25310	1499.22156	59.73587	-211.64694	1290.57922	-28.95711	-176.95264	1205.27197	-86.97905	-141.67336	1062.70227	-172.51688	-27.28152	1005.82025	275.57642	-276.12433	1011.79407	324.88394	-277.74664	1016.88177	427.76871	-66.90847	1010.00305	363.22421	-90.23651	687.41461	419.71451	-208.27095	510.41791	374.00211	-192.57410	434.60349	363.88684	-326.31543	113.14688	317.20132	-388.10153	85.87894	404.29880	-189.22267	59.02847	296.85757	-178.67484	54.16378	177.80527	-62.29927	995.23517	193.10982	68.39109	714.92480	136.42714	52.79553	541.06757	175.44444	84.51826	467.80240	160.26393	1.48880	124.73824	220.73997	-47.29129	95.07515	114.75189	145.91096	71.11619	222.74632	164.40582	62.07721	
8	0.035	366.96231	-245.95296	1395.59131	466.12473	-98.70701	1507.39160	551.99011	-188.51553	1339.14282	639.48041	-149.86906	1213.42188	678.73517	-124.73900	1054.77527	747.46509	-12.09235	1013.47888	119.26621	-131.73936	1498.67188	59.80527	-212.00813	1290.20435	-28.97470	-177.46535	1204.92786	-87.16547	-141.90257	1062.45496	-172.48361	-27.33789	1005.80615	275.20013	-276.28897	1011.38959	324.71033	-278.09714	1016.27399	427.77417	-67.69035	1009.08875	363.13364	-92.53224	686.53485	419.49005	-211.87166	510.21088	374.11472	-196.38397	434.39407	363.60361	-332.60049	113.52765	317.01059	-394.40897	86.41037	404.25262	-195.86279	58.99725	296.89188	-185.21477	54.07420	177.76657	-62.46849	994.17657	193.84277	67.18050	713.32123	137.60001	51.87491	540.17505	176.44511	85.07944	467.86530	159.54932	12.50884	122.47511	219.41653	-35.55486	91.80689	114.46428	159.18535	74.00358	222.78992	178.26529	64.92046	
9	0.040	366.65067	-246.11581	1394.81433	465.99252	-99.04912	1506.82739	551.88617	-189.01891	1338.70435	639.43036	-150.58405	1213.09839	678.73291	-124.99863	1054.40430	747.41669	-12.40019	1013.34375	119.42879	-131.74716	1498.17456	59.83973	-212.39749	1289.80420	-29.04811	-178.07346	1204.53711	-87.30071	-142.09921	1062.15698	-172.46925	-27.32683	1005.76093	274.65131	-276.62283	1011.00604	324.30841	-278.43799	1015.66180	427.90121	-68.41067	1008.31610	363.02048	-94.56168	685.88904	419.52982	-215.37132	509.99701	373.96252	-200.35197	433.99661	363.53088	-338.77997	114.08210	316.92456	-400.74338	87.15047	404.27750	-202.45621	58.78348	296.94385	-191.70927	53.82967	177.73976	-62.59886	993.30078	194.00081	65.47236	711.89984	138.95348	50.97275	538.98553	177.35956	85.34024	468.02347	159.77373	24.06080	120.78735	219.40262	-22.81419	88.44386	114.55930	172.56926	77.42294	223.26239	190.56482	67.95223	
10	0.045	366.42761	-246.28012	1394.03979	465.77380	-99.49332	1506.33398	551.77136	-189.67053	1338.11426	639.38538	-151.16197	1212.57874	678.67371	-125.26703	1053.95313	747.43860	-12.53613	1013.21539	119.05911	-131.18880	1497.83655	59.85139	-212.67807	1289.43213	-28.98483	-178.68584	1204.22656	-87.35025	-142.37451	1061.80762	-172.48726	-27.31959	1005.79596	274.27942	-276.82150	1010.50250	323.68097	-278.91949	1014.97156	427.84827	-69.21542	1007.38739	363.11884	-96.44347	685.18103	419.47980	-218.74139	509.84128	373.84329	-204.24600	433.71750	363.33911	-344.90347	114.54469	316.73557	-407.22974	87.95072	404.13196	-209.26639	58.61059	297.04126	-198.28154	53.78395	177.76038	-62.59818	992.36090	194.56401	63.91435	710.20959	140.02711	49.68029	537.91467	178.64522	85.91416	468.04279	160.19586	35.52312	119.45644	219.72083	-10.41799	85.49477	114.80855	185.32161	80.94685	222.81706	204.18735	71.66625	
11	0.050	366.14508	-246.50714	1393.25598	465.58981	-99.99446	1505.61853	551.68756	-190.17966	1337.67542	639.33673	-151.88922	1212.15063	678.58691	-125.48055	1053.52490	747.42682	-12.70650	1013.13922	119.17875	-131.15111	1497.49451	59.83052	-212.86790	1289.00671	-29.10190	-179.31650	1203.87048	-87.42828	-142.59831	1061.43958	-172.50064	-27.30433	1005.83203	273.79416	-276.96799	1009.88757	323.31918	-279.12311	1014.38635	427.90512	-69.77929	1006.43677	363.09796	-98.38774	684.33655	419.43811	-221.89375	509.64154	373.66995	-207.99858	433.34882	363.11948	-351.27130	115.13017	316.53308	-413.43567	88.79115	404.20197	-215.89101	58.75598	297.03458	-204.75145	53.83754	177.90005	-62.61075	991.22180	195.14040	61.97039	708.10498	141.18370	48.14457	536.64941	179.67987	86.15945	467.98712	160.39474	46.89288	118.44637	220.11958	1.63043	82.90189	114.84360	197.43814	84.94419	223.31960	216.73773	75.76083	
12	0.055	365.81885	-246.47997	1392.15735	465.32233	-100.36940	1505.09827	551.45416	-190.53662	1337.21313	639.29266	-152.52876	1211.74438	678.63824	-125.78334	1053.17383	747.44904	-12.86638	1013.09833	119.77266	-131.62660	1496.99548	59.96841	-213.13791	1288.65723	-29.23011	-180.04517	1203.44177	-87.57671	-142.81071	1061.15234	-172.46751	-27.25818	1005.83954	273.39737	-277.09882	1009.32336	322.96442	-279.27814	1013.60742	428.02502	-70.40071	1005.61932	363.52145	-100.03314	683.63800	419.36615	-225.25374	509.42471	373.98648	-212.08133	433.63052	362.96680	-357.41357	115.62177	316.41196	-419.62900	89.65761	404.00870	-222.60468	58.74031	297.87704	-212.28452	52.56089	177.81982	-62.59370	990.30652	195.47441	60.46499	706.12439	142.15007	46.69615	535.29199	180.79324	86.24693	467.85730	160.66264	57.29029	117.52855	220.12917	13.43608	80.63475	115.22525	209.65639	89.02001	224.03743	228.70265	80.64445	
